<?xml version="1.0" encoding="utf-8"?>
<!-- Generator: Adobe Illustrator 16.0.0, SVG Export Plug-In . SVG Version: 6.00 Build 0)  -->
<!DOCTYPE svg PUBLIC "-//W3C//DTD SVG 1.1//EN" "http://www.w3.org/Graphics/SVG/1.1/DTD/svg11.dtd">
<svg version="1.1" id="圖層_1" xmlns="http://www.w3.org/2000/svg" xmlns:xlink="http://www.w3.org/1999/xlink" x="0px" y="0px"
	 width="480px" height="320px" viewBox="0 0 480 320" enable-background="new 0 0 480 320" xml:space="preserve">
<rect fill-rule="evenodd" clip-rule="evenodd" fill="#595649" stroke="#000000" stroke-width="0" width="480" height="320"/>
<g>
	<path fill="#FFFFFF" stroke="#FFFFFF" stroke-width="0.5669" stroke-linejoin="round" stroke-miterlimit="5" d="M81.486,78.195
		c6.012,0.196,11.698,0.49,17.057,0.882c-0.066-2.549-0.23-5.294-0.49-8.235c0.13-1.633,1.013-2.515,2.647-2.647
		c1.633,0.262,2.451,1.21,2.451,2.843c0.26,2.549,0.424,5.359,0.49,8.431c6.73,0.588,11.666,1.21,14.803,1.862
		c2.156,0.392,3.235,1.373,3.235,2.941c0,1.634-0.818,2.451-2.451,2.451c-0.654,0-2.289-0.294-4.902-0.882
		c-3.203-0.522-6.797-1.012-10.783-1.47c-0.132,3.007-0.588,6.176-1.373,9.509c-0.72,3.529-1.7,5.294-2.941,5.294
		c-1.7,0-2.549-0.915-2.549-2.745c0-0.718,0.196-2.025,0.588-3.921c0.784-2.745,1.208-5.62,1.274-8.627
		c-5.359-0.392-10.915-0.652-16.665-0.784c-8.366,0-17.319,0.262-26.86,0.784c-0.654,0.066-1.34,0.132-2.059,0.196
		c0.26,2.68,0.784,5.556,1.568,8.626c0.718,2.157,1.078,3.661,1.078,4.509c-0.132,1.504-0.882,2.255-2.254,2.255
		c-1.569,0-2.713-1.535-3.431-4.607c-0.85-2.745-1.438-6.208-1.765-10.391c-1.96,0.196-3.791,0.426-5.49,0.686
		c-3.137,0.524-6.078,1.079-8.823,1.667c-1.96,0-2.941-0.915-2.941-2.745c0-1.307,1.11-2.189,3.333-2.647
		c2.875-0.652,7.45-1.274,13.724-1.863c0.064-3.725,0.294-6.6,0.687-8.626c0-1.633,0.849-2.515,2.549-2.647
		c1.765,0.262,2.646,1.145,2.646,2.647c-0.458,2.484-0.784,5.229-0.98,8.234C62.271,78.522,71.813,78.195,81.486,78.195z
		 M102.268,103.781c1.503,0.328,2.255,1.21,2.255,2.646c-0.72,6.667-2.681,12.908-5.882,18.724
		c-3.921,7.32-8.366,13.104-13.332,17.352c-1.701,1.568-3.333,2.907-4.902,4.019c7.646,4.313,15.161,6.47,22.547,6.47
		c3.725,0,6.828-0.49,9.313-1.471c1.765,0.13,2.647,1.208,2.647,3.235c0,2.157-3.693,3.235-11.078,3.235
		c-10.131,0-19.606-2.681-28.429-8.039c-8.758,5.358-17.939,8.039-27.546,8.039c-7.386,0-11.144-1.308-11.273-3.921
		c0-1.634,0.75-2.583,2.254-2.843c3.201,1.176,6.404,1.765,9.607,1.765c7.188,0,14.509-2.125,21.959-6.372
		c-1.765-1.308-3.465-2.615-5.098-3.921c-5.033-4.248-9.607-9.999-13.724-17.253c-3.791-7.581-5.752-13.854-5.882-18.822
		c0-1.307,0.686-2.123,2.059-2.451c1.633,0.132,2.515,0.882,2.647,2.254c1.372,7.386,3.495,13.366,6.372,17.94
		c3.726,6.014,8.529,11.372,14.411,16.077c1.373,1.177,2.777,2.19,4.215,3.039c1.373-0.915,2.777-1.96,4.215-3.137
		c5.686-4.706,10.162-9.965,13.43-15.783c3.463-6.142,5.652-12.318,6.568-18.528C99.751,104.663,100.634,103.913,102.268,103.781z"
		/>
	<path fill="#FFFFFF" stroke="#FFFFFF" stroke-width="0.5669" stroke-linejoin="round" stroke-miterlimit="5" d="M152.303,124.661
		c1.502,0.132,2.255,0.882,2.255,2.255c0,0.654-0.687,2.353-2.059,5.098c-1.176,2.876-2.059,5.947-2.646,9.215
		c-0.654,3.725-1.046,7.123-1.176,10.195c0,1.829-0.72,2.745-2.157,2.745c-1.765,0-2.647-0.98-2.647-2.941
		c0-6.406,1.11-13.103,3.333-20.096C148.773,126.818,150.472,124.661,152.303,124.661z M158.38,73.979
		c1.373,0.262,2.123,1.014,2.255,2.254c0,0.98-0.49,1.863-1.47,2.647c-1.373,1.504-2.647,3.203-3.823,5.098
		c-1.831,3.465-2.745,7.288-2.745,11.47c0.196,6.274,2.613,11.209,7.254,14.802c4.77,3.529,12.058,5.294,21.861,5.294
		c5.882,0,10.848-0.555,14.9-1.667c2.417-0.457,4.476-1.079,6.176-1.863c1.307-0.652,2.451-0.98,3.431-0.98
		c1.306,0.328,1.96,1.112,1.96,2.353c0,1.242-0.49,2.19-1.471,2.843c-2.549,1.242-5.425,2.157-8.626,2.745
		c-4.249,0.98-9.477,1.47-15.685,1.47c-12.288,0-20.979-2.123-26.076-6.372c-5.751-4.313-8.626-10.587-8.626-18.822
		c0-5.882,1.535-11.24,4.607-16.077C154.589,75.712,156.616,73.979,158.38,73.979z M192.593,68.588
		c11.698,0,20.292,2.059,25.782,6.176c5.75,3.987,8.626,9.607,8.626,16.861c0,5.49-1.798,10.425-5.392,14.802
		c-3.137,3.857-5.72,5.784-7.745,5.784c-1.568,0-2.353-0.947-2.353-2.843c0-0.652,0.686-1.502,2.059-2.548
		c1.699-1.307,3.267-2.875,4.706-4.706c2.353-3.137,3.529-6.764,3.529-10.881c0-5.228-2.745-9.607-8.234-13.136
		c-4.249-2.875-11.567-4.313-21.959-4.313c-5.359,0-11.535,0.687-18.528,2.059c-2.026,0.458-3.661,0.916-4.901,1.373
		c-1.112,0.328-2.059,0.49-2.843,0.49c-0.98,0-1.7-0.718-2.157-2.157c0-1.699,0.98-2.875,2.941-3.529
		c2.221-0.652,5.032-1.241,8.431-1.764C181.678,69.144,187.692,68.588,192.593,68.588z M184.064,91.135
		c0.13-3.529,0.555-6.895,1.274-10.097c0.392-1.765,1.339-2.647,2.843-2.647c1.437,0,2.156,0.752,2.156,2.255
		c-0.72,4.183-1.112,7.68-1.176,10.489c5.294,0.066,10.75,0.458,16.371,1.176c3.005,0.262,4.509,1.274,4.509,3.039
		c-0.131,1.308-0.882,2.026-2.254,2.157c-1.242,0-3.595-0.229-7.058-0.687c-3.987-0.392-7.843-0.62-11.568-0.686
		c0.064,1.831,0.229,3.627,0.49,5.392c0.26,1.634,0.652,3.235,1.176,4.804c0.326,0.916,0.49,1.667,0.49,2.254
		c0,1.242-0.818,1.863-2.451,1.863c-1.438,0-2.615-2.025-3.529-6.078c-0.524-2.809-0.916-5.554-1.176-8.234
		c-2.026,0.066-4.117,0.132-6.274,0.196c-3.007,0.328-6.144,0.784-9.411,1.372c-1.634,0-2.548-0.686-2.745-2.059
		c0-1.96,1.437-3.071,4.313-3.333C174.098,91.659,178.771,91.267,184.064,91.135z M170.34,127.406c1.765,0,2.647,0.916,2.647,2.745
		c-1.112,4.117-1.667,7.548-1.667,10.293c0.914,8.561,7.09,12.842,18.528,12.842c5.686,0,10.161-0.752,13.43-2.255
		c0.784-0.328,1.568-0.654,2.353-0.98c1.11-0.588,1.927-0.882,2.451-0.882c1.633,0,2.451,0.882,2.451,2.646
		c0,1.373-1.34,2.451-4.019,3.235c-4.117,1.96-9.869,2.941-17.253,2.941c-7.254,0-12.712-1.504-16.371-4.51
		c-4.313-3.333-6.47-7.68-6.47-13.038C166.875,131.753,168.184,127.406,170.34,127.406z M194.064,127.112
		c4.639,0.392,6.96,2.681,6.96,6.862c0,4.641-2.255,6.96-6.764,6.96c-4.249-0.13-6.634-2.451-7.156-6.96
		C187.364,129.792,189.685,127.504,194.064,127.112z M194.26,136.131c1.502,0,2.255-0.75,2.255-2.255
		c0-1.373-0.818-2.189-2.451-2.451c-1.504,0.262-2.353,1.078-2.549,2.451C191.711,135.38,192.625,136.131,194.26,136.131z
		 M216.415,127.406c1.241,0,2.549,0.916,3.921,2.745c1.699,1.96,3.333,4.575,4.901,7.842c2.613,5.49,3.921,9.868,3.921,13.136
		c0,1.437-0.686,2.157-2.059,2.157c-1.242,0-2.059-0.882-2.451-2.647c-1.765-7.254-4.543-13.136-8.333-17.646
		c-1.177-1.502-1.765-2.711-1.765-3.627C214.552,128.322,215.172,127.668,216.415,127.406z"/>
	<path fill="#FFFFFF" stroke="#FFFFFF" stroke-width="0.5669" stroke-linejoin="round" stroke-miterlimit="5" d="M260.371,88.194
		c1.633,0.392,2.451,1.34,2.451,2.843c0,0.588-0.262,1.634-0.784,3.137c-0.524,2.288-0.916,4.869-1.177,7.744
		c-0.392,5.098-0.588,12.254-0.588,21.469c0,6.078,0.261,11.896,0.784,17.45c0.588,5.554,1.372,10.848,2.353,15.881
		c0,1.568-0.72,2.353-2.156,2.353c-1.505,0-2.517-0.916-3.039-2.745c-2.026-7.974-3.073-19.214-3.137-33.723
		c0-8.431,0.195-15.357,0.588-20.783c0.326-4.639,0.882-8.365,1.666-11.175C258.116,89.012,259.129,88.194,260.371,88.194z
		 M304.093,78.587c6.471,0.132,12.58,0.392,18.332,0.784c7.122,0.458,12.254,0.948,15.391,1.47c2.091,0.392,3.137,1.373,3.137,2.941
		c0,1.569-0.784,2.353-2.353,2.353c-0.654,0-2.156-0.196-4.509-0.588c-3.529-0.522-7.646-0.98-12.353-1.373
		c-5.489-0.392-11.241-0.62-17.253-0.686c-8.039,0-16.602,0.164-25.685,0.49c-4.379,0.262-8.3,0.588-11.764,0.98
		c-3.007,0.392-5.817,0.784-8.431,1.176c-2.026,0-3.039-0.882-3.039-2.647c0-1.373,1.144-2.255,3.432-2.647
		c3.071-0.456,8.364-0.946,15.881-1.47c5.424-0.326,10.913-0.522,16.469-0.588c-0.653-1.11-1.078-2.353-1.274-3.725
		c0.261-4.248,2.549-6.568,6.862-6.96c4.771,0.392,7.156,2.712,7.156,6.96c0,1.373-0.229,2.549-0.686,3.529H304.093z
		 M307.229,129.759c5.49,0.066,10.652,0.294,15.489,0.686c5.882,0.524,10.129,1.014,12.744,1.471
		c2.024,0.458,3.039,1.406,3.039,2.843c0,1.568-0.784,2.353-2.353,2.353c-0.524,0-1.765-0.196-3.726-0.588
		c-2.941-0.588-6.372-1.045-10.293-1.373c-4.642-0.392-9.445-0.652-14.411-0.784h-0.686c0.522,1.896,0.882,3.791,1.078,5.686h0.784
		c5.686,0.196,11.044,0.588,16.077,1.177c6.143,0.72,10.587,1.438,13.332,2.156c2.025,0.393,3.039,1.339,3.039,2.843
		c0,1.502-0.752,2.254-2.255,2.254c-0.588,0-1.929-0.262-4.02-0.784c-3.072-0.72-6.634-1.34-10.685-1.862
		c-4.838-0.524-9.869-0.85-15.097-0.98h-0.883v1.274c0,8.691-3.269,13.038-9.803,13.038c-3.791,0-6.862-0.426-9.215-1.274
		c-3.333-1.112-5-2.289-5-3.529c0-1.764,0.816-2.646,2.451-2.646c0.784,0,1.927,0.424,3.431,1.274
		c1.765,0.848,4.346,1.274,7.744,1.274c3.594-0.066,5.424-2.779,5.49-8.137v-1.274c-5.882,0.13-11.96,0.358-18.233,0.686
		c-3.987,0.327-7.614,0.719-10.882,1.177c-2.811,0.456-5.426,0.914-7.843,1.372c-1.896,0-2.843-0.85-2.843-2.549
		c0-1.242,1.079-2.059,3.235-2.451c2.875-0.652,7.776-1.307,14.704-1.96c7.188-0.588,14.345-0.947,21.469-1.079
		c-0.262-2.025-0.621-3.887-1.078-5.587c-4.641,0.066-9.606,0.294-14.9,0.686c-3.465,0.328-6.634,0.72-9.509,1.176
		c-2.353,0.524-4.575,1.046-6.666,1.569c-1.896,0-2.843-0.882-2.843-2.647c0-1.241,1.078-2.059,3.234-2.451
		c2.483-0.719,6.698-1.405,12.646-2.059c5.489-0.457,10.979-0.751,16.469-0.882c-0.392-0.849-0.818-1.699-1.274-2.549
		c-0.72-1.307-1.112-2.287-1.177-2.941c-1.896,0.132-3.791,0.262-5.686,0.392c-5.817,0.524-11.273,1.21-16.371,2.059
		c-1.7,0-2.549-0.75-2.549-2.255c0-1.11,0.784-1.96,2.353-2.549c4.966-0.914,10.358-1.568,16.176-1.96
		c6.666-0.588,13.364-0.915,20.096-0.98c4.836,0,8.725,0.098,11.666,0.294c1.829,0.131,2.777,0.948,2.843,2.451
		c-0.065,1.568-0.916,2.353-2.549,2.353c-4.313-0.326-8.528-0.49-12.646-0.49c-2.812,0.066-5.588,0.196-8.333,0.392v0.098
		c1.11,1.7,2.025,3.563,2.745,5.588H307.229z M280.369,91.625c0.064-1.373,0.131-2.647,0.196-3.823
		c0.393-1.895,1.274-2.843,2.647-2.843c1.633,0.131,2.45,1.014,2.45,2.646c-0.132,1.438-0.262,2.745-0.392,3.921
		c1.307,0.066,2.744,0.164,4.313,0.294c1.961,0.196,3.888,0.458,5.784,0.784c2.745,0.524,4.117,1.569,4.117,3.137
		c0,1.438-0.784,2.157-2.353,2.157c-3.856-0.98-7.94-1.503-12.254-1.568c-0.132,2.353-0.196,4.347-0.196,5.979
		c0,2.941,0.751,7.484,2.255,13.626c0,1.765-0.85,2.647-2.549,2.647c-1.308,0-2.255-1.307-2.843-3.921
		c-0.98-4.248-1.471-8.691-1.471-13.332c0-1.633,0.032-3.268,0.099-4.902c-3.922,0.132-7.614,0.524-11.078,1.176
		c-1.438,0-2.254-0.686-2.45-2.059c0-1.502,0.914-2.483,2.745-2.941c1.96-0.392,4.541-0.686,7.744-0.882
		C278.375,91.659,279.454,91.625,280.369,91.625z M273.213,100.742c1.569,0.066,2.354,0.818,2.354,2.255
		c0,0.328-0.294,1.046-0.883,2.157c-0.458,1.242-0.85,2.582-1.176,4.019c-0.263,1.7-0.426,3.203-0.49,4.509
		c0,1.765-0.687,2.647-2.059,2.647c-1.765,0-2.647-0.947-2.647-2.843c0-3.071,0.687-6.274,2.059-9.607
		C271.285,101.788,272.233,100.742,273.213,100.742z M293.604,100.84c1.633,0.132,2.516,1.046,2.647,2.745
		c0.26,1.112,0.392,2.419,0.392,3.921c0,1.568-0.065,2.811-0.196,3.725c0,2.092-0.882,3.137-2.646,3.137
		c-1.504-0.064-2.255-0.98-2.255-2.745c0.261-1.044,0.393-2.385,0.393-4.019c-0.132-1.699-0.294-3.104-0.49-4.215
		C291.447,101.82,292.165,100.972,293.604,100.84z M297.133,77.116c1.633,0,2.451-0.75,2.451-2.254c0-1.373-0.883-2.189-2.647-2.451
		c-1.438,0.262-2.255,1.079-2.45,2.451C294.682,76.366,295.564,77.116,297.133,77.116z M316.15,90.154
		c-0.458-1.241-0.686-2.059-0.686-2.451c0-1.502,0.784-2.255,2.353-2.255c1.765,0,2.94,1.537,3.529,4.607
		c1.96,0.066,4.051,0.196,6.273,0.393c2.417,0.262,4.836,0.588,7.255,0.98c2.809,0.458,4.215,1.438,4.215,2.941
		c0,1.504-0.784,2.255-2.353,2.255c-4.575-0.915-9.379-1.405-14.41-1.471c0.392,2.811,0.588,6.046,0.588,9.705
		c0,8.431-0.916,12.712-2.745,12.842c-2.092,0-3.137-0.785-3.137-2.353c0.652-2.941,0.98-6.862,0.98-11.764
		c0-3.593-0.164-6.404-0.49-8.431c-4.51,0.132-8.595,0.687-12.254,1.667c-1.504,0-2.353-0.718-2.549-2.157
		c0-1.502,0.98-2.483,2.94-2.941c1.896-0.522,4.476-0.946,7.745-1.274C314.32,90.318,315.234,90.22,316.15,90.154z M310.171,99.761
		c1.503,0.132,2.255,0.85,2.255,2.157c0,0.328-0.328,1.046-0.98,2.157c-0.458,1.176-0.818,2.484-1.078,3.921
		c-0.262,1.504-0.426,2.909-0.49,4.215c0,1.7-0.654,2.549-1.961,2.549c-1.83,0-2.745-0.915-2.745-2.745
		c0-2.941,0.653-6.044,1.961-9.313C308.112,100.742,309.125,99.761,310.171,99.761z M332.228,99.271
		c1.437,0.065,2.157,0.72,2.157,1.96c0,0.916-0.196,1.667-0.589,2.254c-0.588,1.046-0.882,2.027-0.882,2.941
		c0.196,2.289,1.208,3.431,3.039,3.431c0.652,0,1.24-0.13,1.765-0.392c0.718-0.392,1.274-0.588,1.666-0.588
		c1.437,0.131,2.222,0.818,2.353,2.059c0,1.308-0.556,2.19-1.666,2.646c-0.851,0.654-2.157,0.98-3.921,0.98
		c-2.549,0-4.544-0.75-5.98-2.255c-1.372-1.24-2.124-3.201-2.255-5.882c0-1.764,0.457-3.463,1.373-5.097
		C330.136,99.958,331.116,99.271,332.228,99.271z"/>
	<path fill="#FFFFFF" stroke="#FFFFFF" stroke-width="0.5669" stroke-linejoin="round" stroke-miterlimit="5" d="M405.104,73.979
		c-7.058,0.066-13.268,0.328-18.625,0.784c-5.622,0.654-10.85,1.47-15.686,2.451c-2.353,0.72-3.791,1.078-4.313,1.078
		c-1.372,0-2.19-0.784-2.45-2.353c0-1.633,1.143-2.711,3.431-3.235c4.313-0.98,9.737-1.863,16.273-2.647
		c6.6-0.718,14.345-1.143,23.233-1.274c18.56,0.132,31.958,1.242,40.192,3.333c2.549,0.654,3.823,1.798,3.823,3.431
		c0,1.373-0.687,2.157-2.059,2.353c-0.654,0-2.026-0.294-4.117-0.882c-3.269-0.915-8.203-1.667-14.803-2.255
		c-6.274-0.457-12.68-0.687-19.214-0.687c-0.066,0.916-0.36,2.289-0.883,4.118c-0.654,3.007-1.144,6.34-1.471,9.999
		c-0.065,1.046-0.131,2.223-0.195,3.529c1.828-0.064,3.691-0.13,5.588-0.196c11.239,0.328,19.964,2.876,26.174,7.646
		c7.188,5.556,10.783,12.254,10.783,20.096c0,9.935-1.145,18.202-3.431,24.802c-1.373,4.509-2.909,7.94-4.607,10.293
		c-1.309,2.353-2.583,3.529-3.823,3.529c-1.7,0-2.549-0.882-2.549-2.647c0-0.72,0.914-2.418,2.744-5.098
		c1.765-3.203,3.202-6.894,4.313-11.077c1.503-5.686,2.255-12.122,2.255-19.312c0-6.274-3.072-11.926-9.215-16.959
		c-6.21-4.182-13.692-6.274-22.449-6.274c-1.96,0-3.986,0.066-6.077,0.196c-0.196,5.555-0.295,12.124-0.295,19.704
		c0,6.928,0.326,13.626,0.98,20.096c0.652,6.406,1.568,12.548,2.745,18.43c0,1.502-0.72,2.255-2.156,2.255
		c-1.505,0-2.518-0.882-3.039-2.647c-2.354-9.215-3.596-22.187-3.726-38.918c0-7.059,0.098-13.234,0.294-18.528
		c-2.418,0.196-4.804,0.426-7.156,0.686c-3.595,0.524-6.862,1.21-9.803,2.059c-3.007,1.046-5,1.568-5.979,1.568
		c-1.373,0-2.06-0.98-2.06-2.941c0-1.568,3.79-3.169,11.372-4.803c4.247-0.784,8.854-1.339,13.822-1.667
		c0.064-1.373,0.13-2.613,0.196-3.725C403.666,82.346,404.319,77.574,405.104,73.979z M388.438,77.9
		c1.961,0.132,2.941,0.882,2.941,2.255c0,1.765-0.883,2.647-2.647,2.647c-3.202,0.784-6.241,1.96-9.116,3.529
		c-1.373,0.784-2.778,1.667-4.216,2.647c-1.765,1.504-3.072,2.745-3.921,3.725c-0.916,1.634-1.929,2.451-3.039,2.451
		c-1.504,0-2.387-0.849-2.646-2.549c0-1.176,0.522-2.353,1.568-3.529c1.11-1.045,2.679-2.385,4.705-4.02
		c2.745-1.96,5.882-3.691,9.411-5.195C384.812,78.555,387.131,77.9,388.438,77.9z M371.676,99.271
		c1.568,0.131,2.353,0.882,2.353,2.254c0,1.046-0.556,3.791-1.667,8.235c-0.653,4.837-0.979,8.888-0.979,12.156
		c0,14.313,1.274,25.684,3.823,34.114c0,1.895-0.687,2.843-2.06,2.843c-1.634,0-2.712-1.014-3.234-3.039
		c-1.046-3.465-1.896-8.269-2.549-14.411c-0.588-7.318-0.883-13.953-0.883-19.9c0.326-8.365,1.241-14.901,2.745-19.606
		C369.485,100.285,370.303,99.403,371.676,99.271z M378.538,107.996c1.764,0,3.823,0.654,6.176,1.96
		c0.849,0.458,1.633,0.882,2.353,1.274c3.137-1.96,5.979-3.137,8.528-3.529c1.568,0.132,2.353,0.916,2.353,2.353
		c0,1.308-0.752,2.223-2.254,2.745c-1.373,0.524-2.745,1.112-4.117,1.765l0.195,0.098c2.091,1.831,3.659,3.465,4.706,4.901
		c1.11,1.504,1.666,2.811,1.666,3.921c0,1.504-0.817,2.254-2.45,2.254c-0.916,0-1.863-0.75-2.843-2.254
		c-1.635-2.157-3.628-4.117-5.98-5.882c-1.568,1.438-3.171,2.975-4.804,4.607c-1.111,1.831-2.288,2.745-3.528,2.745
		c-1.438,0-2.157-0.849-2.157-2.549c0-1.372,1.471-3.495,4.411-6.372c0.589-0.588,1.111-1.079,1.569-1.471
		c-1.112-0.588-2.255-1.143-3.432-1.667c-1.765-0.522-2.646-1.405-2.646-2.647C376.283,109.074,377.033,108.324,378.538,107.996z
		 M379.322,130.837c1.765,0,3.823,0.654,6.176,1.961c0.849,0.458,1.601,0.916,2.255,1.372l0.098-0.098
		c3.137-1.961,5.946-3.137,8.431-3.529c1.633,0.132,2.451,0.916,2.451,2.353c0,1.308-0.753,2.223-2.255,2.745
		c-1.373,0.588-2.713,1.176-4.02,1.765l0.098,0.098c2.091,1.831,3.691,3.465,4.804,4.902c0.98,1.437,1.471,2.777,1.471,4.019
		c0,1.373-0.784,2.059-2.353,2.059c-0.916,0-1.896-0.686-2.941-2.059c-1.634-2.288-3.595-4.279-5.882-5.98
		c-1.568,1.438-3.171,2.975-4.804,4.607c-1.176,1.829-2.353,2.745-3.528,2.745c-1.438,0-2.157-0.818-2.157-2.451
		c0-1.504,1.471-3.691,4.411-6.568c0.589-0.522,1.111-0.946,1.569-1.274c-1.177-0.652-2.354-1.274-3.529-1.862
		c-1.765-0.457-2.647-1.274-2.647-2.451C376.969,131.949,377.753,131.165,379.322,130.837z M415.397,105.055
		c1.765,0,3.789,0.654,6.077,1.96c0.98,0.524,1.896,1.046,2.745,1.568c3.071-1.829,5.816-2.941,8.234-3.333
		c1.568,0.132,2.354,0.916,2.354,2.353c0,1.308-0.721,2.222-2.157,2.745c-1.372,0.458-2.646,1.014-3.823,1.667
		c2.025,1.7,3.529,3.269,4.51,4.706c1.11,1.373,1.666,2.681,1.666,3.921c0,1.438-0.817,2.156-2.45,2.156
		c-0.851,0-1.831-0.718-2.941-2.156c-1.504-2.157-3.366-4.084-5.588-5.784c-1.765,1.504-3.431,3.137-4.999,4.902
		c-1.242,1.83-2.451,2.745-3.627,2.745c-1.438,0-2.157-0.816-2.157-2.451c0-1.502,1.437-3.691,4.313-6.568
		c0.784-0.588,1.471-1.111,2.059-1.569c-1.308-0.784-2.582-1.47-3.823-2.059c-1.83-0.457-2.745-1.274-2.745-2.451
		C413.044,106.167,413.829,105.383,415.397,105.055z M416.966,129.857c1.765,0,3.823,0.654,6.176,1.96
		c0.784,0.458,1.535,0.916,2.255,1.373l0.098-0.098c3.137-1.96,5.946-3.137,8.431-3.529c1.633,0.132,2.451,0.882,2.451,2.255
		s-0.752,2.321-2.255,2.843c-1.372,0.524-2.745,1.079-4.117,1.667l0.196,0.294c2.091,1.764,3.691,3.399,4.803,4.901
		c0.98,1.373,1.471,2.679,1.471,3.921c0,1.437-0.784,2.156-2.353,2.156c-0.916,0-1.896-0.72-2.941-2.156
		c-1.634-2.221-3.595-4.215-5.882-5.98c-1.568,1.438-3.17,2.975-4.803,4.607c-1.177,1.829-2.354,2.745-3.529,2.745
		c-1.438,0-2.157-0.85-2.157-2.549c0-1.437,1.471-3.593,4.412-6.47c0.588-0.522,1.11-0.947,1.568-1.274
		c-1.177-0.718-2.353-1.339-3.529-1.863c-1.765-0.457-2.646-1.307-2.646-2.549C414.613,130.935,415.397,130.185,416.966,129.857z
		 M427.651,78.587c1.96,0,4.215,0.622,6.764,1.862c2.81,1.308,5.489,2.843,8.038,4.607c2.354,1.765,4.149,3.333,5.393,4.706
		c1.11,1.438,1.666,2.713,1.666,3.823c0,1.568-0.85,2.353-2.549,2.353c-0.98,0-2.059-0.718-3.235-2.156
		c-3.528-4.052-8.758-7.385-15.685-10c-1.961-0.522-2.94-1.437-2.94-2.745C425.103,79.797,425.951,78.979,427.651,78.587z"/>
</g>
<g>
	<g>
		<path fill="#FFFFFF" stroke="#FFFFFF" stroke-width="0.5669" stroke-linejoin="round" stroke-miterlimit="5" d="M56.434,211.167
			c0.542,0,1.058,0.013,1.547,0.039c-0.082-2.362-0.516-4.895-1.303-7.599c-0.218-0.026-0.435-0.04-0.651-0.04
			c-3.203,0-6.649,0.105-10.34,0.315c-1.71,0.132-3.271,0.289-4.682,0.473c-1.221,0.184-2.361,0.368-3.419,0.551
			c-0.841,0-1.262-0.368-1.262-1.103c0-0.577,0.475-0.945,1.425-1.103c1.275-0.236,3.405-0.499,6.391-0.788
			c3.827-0.262,7.734-0.394,11.724-0.394h0.204c-0.461-1.496-1.113-3.084-1.954-4.764c-0.842-1.654-1.303-2.677-1.384-3.071
			c-1.9,0.158-3.691,0.341-5.374,0.551c-3.609,0.447-6.948,1.05-10.014,1.811c-0.733,0-1.099-0.354-1.099-1.063
			c0-0.525,0.42-0.892,1.262-1.103c2.794-0.787,6.526-1.457,11.194-2.008c4.152-0.419,7.883-0.63,11.195-0.63
			c3.229,0,6.133,0.079,8.711,0.236c1.357,0.053,2.036,0.472,2.036,1.26c0,0.708-0.326,1.063-0.977,1.063
			c-0.733,0-2.076-0.118-4.03-0.354c-1.791-0.104-3.772-0.157-5.943-0.157c-1.574,0.053-3.08,0.118-4.519,0.197
			c1.357,2.809,2.442,5.512,3.257,8.111c1.709,0.053,3.324,0.132,4.844,0.236c2.85,0.236,4.898,0.459,6.147,0.669
			c0.922,0.157,1.384,0.564,1.384,1.22c0,0.657-0.353,0.984-1.058,0.984c-0.245,0-0.842-0.079-1.792-0.236
			c-1.438-0.21-3.107-0.394-5.007-0.551c-1.276-0.079-2.579-0.144-3.908-0.197c0.76,2.573,1.194,5.093,1.303,7.56
			c1.411,0.053,2.754,0.118,4.03,0.197c3.066,0.184,5.278,0.381,6.635,0.59c0.922,0.184,1.384,0.604,1.384,1.26
			c0,0.683-0.34,1.023-1.018,1.023c-0.299,0-0.951-0.079-1.954-0.236c-1.521-0.21-3.312-0.407-5.374-0.591
			c-1.221-0.079-2.457-0.131-3.705-0.158c-0.217,8.269-2.66,12.403-7.327,12.403c-1.71,0-3.081-0.276-4.112-0.827
			c-1.574-0.657-2.361-1.378-2.361-2.166c0-0.447,0.298-0.749,0.896-0.906c0.461,0,0.841,0.118,1.14,0.354
			c0.434,0.367,0.937,0.656,1.506,0.866c0.814,0.289,1.764,0.433,2.85,0.433c3.229,0,4.939-3.413,5.129-10.237
			c-0.516-0.026-1.004-0.039-1.465-0.039c-3.447,0-7.151,0.092-11.113,0.275c-1.846,0.132-3.528,0.302-5.048,0.512
			c-1.303,0.184-2.51,0.381-3.623,0.591c-0.869,0-1.303-0.394-1.303-1.181c0-0.551,0.489-0.906,1.466-1.063
			c1.356-0.289,3.636-0.564,6.839-0.827C47.939,211.298,52.145,211.167,56.434,211.167z"/>
		<path fill="#FFFFFF" stroke="#FFFFFF" stroke-width="0.5669" stroke-linejoin="round" stroke-miterlimit="5" d="M111.39,190.535
			c0.841,0.053,1.262,0.381,1.262,0.984c0,0.657-0.394,1.011-1.18,1.063c-3.094,0.814-5.835,2.599-8.223,5.355
			c-2.036,2.415-3.189,5.145-3.46,8.189c0,2.205,0.692,3.938,2.076,5.197c1.113,0.84,2.185,1.326,3.216,1.457
			c0.706,0.157,1.059,0.381,1.059,0.669c0.136,2.336,0.38,4.357,0.733,6.063c0.271,1.286,0.597,2.467,0.977,3.543
			c0.326,0.734,0.488,1.286,0.488,1.654c0,0.63-0.313,0.945-0.936,0.945c-0.625,0-1.045-0.368-1.262-1.103
			c-0.597-1.549-1.072-3.203-1.425-4.961c-0.353-2.021-0.529-3.623-0.529-4.804c-4.37-1.102-6.554-4.002-6.554-8.701
			c0-3.465,1.655-7.035,4.966-10.709c1.682-1.497,3.324-2.717,4.926-3.662C109.421,190.929,110.711,190.535,111.39,190.535z
			 M126.248,205.458c1.873,0,3.84,0.184,5.903,0.551c1.248,0.105,1.873,0.512,1.873,1.221c-0.027,0.525-0.313,0.814-0.855,0.866
			c-0.462,0-1.29-0.104-2.483-0.315c-1.493-0.21-2.958-0.315-4.396-0.315c-1.058,0-2.185,0.026-3.378,0.079
			c-1.032,0.079-2.09,0.21-3.175,0.394c-0.082,0-0.149-0.013-0.204-0.04c-0.027,0.708-0.041,1.404-0.041,2.087
			c0,2.1,0.041,3.99,0.123,5.669c0.515,0.132,1.221,0.263,2.117,0.394c1.14,0.236,2.822,0.354,5.048,0.354
			c1.899,0,3.338-0.091,4.315-0.275c1.031-0.21,1.669-0.38,1.913-0.512c0.706,0,1.059,0.315,1.059,0.945
			c0,0.708-0.353,1.089-1.059,1.142c-0.841,0.394-2.917,0.63-6.228,0.709c-3.23,0-5.577-0.249-7.042-0.748
			c0.026,0.157,0.041,0.302,0.041,0.433c0.163,1.496,0.38,2.953,0.651,4.37c0.407,1.207,0.611,1.995,0.611,2.363
			c0,0.734-0.34,1.102-1.018,1.102c-0.625,0-1.058-0.42-1.303-1.26c-0.896-3.045-1.343-7.861-1.343-14.45
			c0-2.52,0.095-5.08,0.285-7.678c0.244-2.441,0.448-4.068,0.61-4.882c-0.516,0.053-0.991,0.118-1.425,0.197
			c-0.679,0.105-1.316,0.223-1.913,0.354h-0.041c-0.055,0.105-0.109,0.197-0.163,0.276c-1.194,2.021-2.117,4.042-2.768,6.063
			c-0.055,0.84-0.394,1.26-1.018,1.26c-0.814,0-1.221-0.394-1.221-1.181c0-0.525,0.366-1.719,1.099-3.583
			c0.787-1.679,1.696-3.307,2.727-4.882c1.384-1.994,2.565-3.517,3.542-4.567c0.95-1.023,1.75-1.535,2.401-1.535
			c0.651,0.184,0.977,0.486,0.977,0.905c0,0.263-0.122,0.525-0.366,0.788c-0.326,0.394-0.719,0.801-1.181,1.221
			c-0.841,0.893-1.628,1.837-2.361,2.835c0.624-0.079,1.329-0.158,2.117-0.236c2.171-0.158,4.382-0.236,6.635-0.236
			c1.574,0.026,3.04,0.079,4.396,0.157c1.683,0.105,2.904,0.224,3.664,0.354c0.922,0.158,1.384,0.565,1.384,1.221
			c0,0.656-0.353,0.984-1.058,0.984c-0.136,0-0.502-0.052-1.099-0.158c-0.842-0.131-1.819-0.236-2.931-0.315
			c-1.33-0.104-2.728-0.17-4.193-0.197c-1.547,0-3.162,0.04-4.844,0.118v0.118c-0.516,1.837-0.855,4.606-1.018,8.308
			c0.244-0.079,0.501-0.131,0.773-0.157C121.987,205.563,123.941,205.458,126.248,205.458z"/>
		<path fill="#FFFFFF" stroke="#FFFFFF" stroke-width="0.5669" stroke-linejoin="round" stroke-miterlimit="5" d="M165.287,198.056
			c0-0.289,0.014-0.564,0.041-0.827c0.271-2.545,0.57-4.659,0.896-6.339c0.271-0.577,0.61-0.918,1.018-1.024
			c0.787,0,1.208,0.315,1.262,0.945c0,0.184-0.041,0.42-0.123,0.708c-0.081,0.525-0.19,1.103-0.325,1.732
			c-0.163,1.234-0.34,2.717-0.529,4.449c0,0.132-0.014,0.25-0.041,0.354c0.38,0.026,0.773,0.066,1.181,0.118
			c0.814,0.079,1.614,0.197,2.402,0.354c1.248,0.236,1.873,0.683,1.873,1.339c0,0.656-0.366,0.984-1.099,0.984
			c-1.439-0.394-2.958-0.616-4.56-0.669c-0.108,1.707-0.163,3.347-0.163,4.922c0,3.413,0.095,6.904,0.285,10.473
			c0.244,2.625,0.393,4.305,0.448,5.04c1.14-0.132,2.198-0.381,3.175-0.749c0.759,0,1.14,0.368,1.14,1.103
			c0,0.577-0.299,0.918-0.896,1.024c-1.004,0.472-2.646,0.708-4.926,0.708c-2.442,0-4.274-0.302-5.496-0.905
			c-0.543-0.158-0.869-0.525-0.977-1.103c0-0.657,0.38-0.984,1.14-0.984c1.411,0.498,2.945,0.8,4.6,0.906
			c-0.407-3.518-0.638-8.491-0.692-14.923c0.027-1.89,0.108-3.727,0.244-5.512c-1.547,0.053-2.958,0.224-4.233,0.512
			c-0.679,0-1.073-0.328-1.181-0.984c0-0.604,0.448-1.024,1.343-1.26c0.651-0.131,1.561-0.236,2.728-0.315
			C164.364,198.082,164.853,198.056,165.287,198.056z M184.989,195.654c1.466,0,3.229,0.053,5.292,0.158
			c1.601,0.105,3.202,0.263,4.803,0.472c1.275,0.184,1.914,0.63,1.914,1.339c0,0.604-0.353,0.905-1.059,0.905
			c-3.393-0.498-6.988-0.748-10.788-0.748h-1.099c-0.082,0.342-0.299,0.709-0.651,1.103c-0.543,0.683-1.262,1.917-2.158,3.701
			c-0.217,0.499-0.421,1.024-0.61,1.575c0.271-0.183,0.624-0.38,1.059-0.59c1.411-0.446,3.053-0.669,4.925-0.669
			c3.257,0,5.685,0.906,7.287,2.717c1.655,1.785,2.483,4.515,2.483,8.189c0,3.701-0.651,6.733-1.954,9.095
			c-0.488,0.971-1.072,1.772-1.75,2.402c-0.57,0.577-1.194,0.866-1.873,0.866c-0.597,0-0.923-0.289-0.977-0.866
			c0-0.394,0.203-0.748,0.61-1.063c1.112-0.971,2.049-2.35,2.809-4.134c0.759-1.942,1.14-4.016,1.14-6.221
			c0-2.993-0.679-5.25-2.036-6.772c-1.276-1.522-3.189-2.284-5.74-2.284c-1.194,0.079-2.402,0.276-3.623,0.591
			c-1.004,0.341-1.696,0.512-2.076,0.512c-0.38,0-0.625-0.144-0.732-0.433c-0.353,1.129-0.692,2.297-1.018,3.504
			c-1.113,4.384-1.669,8.715-1.669,12.993c0,0.84-0.326,1.26-0.977,1.26c-0.814,0-1.222-0.644-1.222-1.929
			c0-4.016,0.57-8.36,1.71-13.033c1.194-4.41,2.7-7.875,4.519-10.395c-2.28,0.105-4.411,0.342-6.391,0.709
			c-0.651,0-1.032-0.302-1.14-0.906c0-0.656,0.434-1.089,1.302-1.299c1.303-0.236,3.08-0.433,5.333-0.59
			C182.208,195.707,183.66,195.654,184.989,195.654z M185.885,189.512c1.98,0.157,2.972,1.089,2.972,2.795
			c0,1.811-0.964,2.717-2.891,2.717c-1.709-0.052-2.687-0.958-2.931-2.717C183.171,190.601,184.121,189.669,185.885,189.512z
			 M185.966,193.134c0.678,0,1.018-0.301,1.018-0.905c0-0.551-0.367-0.879-1.099-0.984c-0.57,0.105-0.896,0.433-0.977,0.984
			C184.989,192.833,185.342,193.134,185.966,193.134z"/>
	</g>
	
		<path fill-rule="evenodd" clip-rule="evenodd" fill="none" stroke="#FFFFFF" stroke-width="1.4173" stroke-linejoin="round" stroke-miterlimit="22.9256" d="
		M37.959,185.394h29.725c4.397,0,7.994,3.598,7.994,7.994v29.725c0,4.398-3.597,7.996-7.994,7.996H37.959
		c-4.398,0-7.996-3.597-7.996-7.996v-29.725C29.964,188.992,33.561,185.394,37.959,185.394z"/>
	
		<path fill-rule="evenodd" clip-rule="evenodd" fill="none" stroke="#FFFFFF" stroke-width="1.4173" stroke-linejoin="round" stroke-miterlimit="22.9256" d="
		M100.246,185.394h29.725c4.397,0,7.995,3.598,7.995,7.994v29.725c0,4.398-3.598,7.996-7.995,7.996h-29.725
		c-4.397,0-7.995-3.597-7.995-7.996v-29.725C92.251,188.992,95.849,185.394,100.246,185.394z"/>
	
		<path fill-rule="evenodd" clip-rule="evenodd" fill="none" stroke="#FFFFFF" stroke-width="1.4173" stroke-linejoin="round" stroke-miterlimit="22.9256" d="
		M162.532,185.394h29.726c4.398,0,7.996,3.598,7.996,7.994v29.725c0,4.398-3.597,7.996-7.996,7.996h-29.726
		c-4.396,0-7.994-3.597-7.994-7.996v-29.725C154.538,188.992,158.135,185.394,162.532,185.394z"/>
</g>
<g>
</g>
<g>
</g>
<g>
</g>
<g>
</g>
<g>
</g>
<g>
</g>
</svg>
